<!-- Exported by Character Map UWP -->
<svg height="100%" viewBox="273 201 478 726" width="100%" xmlns="http://www.w3.org/2000/svg" xmlns:xlink="http://www.w3.org/1999/xlink">
  <path d="M273,211L281,201L740.5,201L750,211L750,349C711,390.667 677.333,439.833 649,496.5C637,520.5 625.417,547.417 614.25,577.25C603.083,607.083 593.75,639.583 586.25,674.75C578.75,709.917 573.417,747.75 570.25,788.25C567.083,828.75 567.5,871.833 571.5,917.5C569.833,918.833 568.5,920.083 567.5,921.25C566.5,922.417 565.5,923.333 564.5,924L561.5,927L404,927L403,926C402.333,925.333 401.5,924.583 400.5,923.75C399.5,922.917 397.833,921.333 395.5,919C393.833,880.667 395.75,843 401.25,806C406.75,769 414.5,733.25 424.5,698.75C434.5,664.25 446.25,631.417 459.75,600.25C473.25,569.083 487,540.167 501,513.5C534,451.167 572.333,393 616,339L281,339L272.5,330Z" fill="#000000" fill-opacity="1">
  </path>
</svg>