<!-- Exported by Character Map UWP -->
<svg height="100%" viewBox="281 195 467 734" width="100%" xmlns="http://www.w3.org/2000/svg" xmlns:xlink="http://www.w3.org/1999/xlink">
  <path d="M419,444L289.5,444L287,440.5C287,398.167 294.167,360.917 308.5,328.75C322.833,296.583 342.25,270 366.75,249C391.25,228 419.667,212.917 452,203.75C484.333,194.583 518.833,192 555.5,196C567.167,198 580.667,201.5 596,206.5C611.333,211.5 626.833,219.083 642.5,229.25C658.167,239.417 673.25,252.667 687.75,269C702.25,285.333 714.5,305.833 724.5,330.5C728.833,341.5 731.75,353.583 733.25,366.75C734.75,379.917 734.417,393.583 732.25,407.75C730.083,421.917 726.083,436 720.25,450C714.417,464 706.583,477.417 696.75,490.25C686.917,503.083 674.917,514.75 660.75,525.25C646.583,535.75 630.167,544.5 611.5,551.5C630.833,555.833 648.583,563.667 664.75,575C680.917,586.333 694.833,599.917 706.5,615.75C718.167,631.583 727.5,649.167 734.5,668.5C741.5,687.833 745.667,707.583 747,727.75C748.333,747.917 746.5,768 741.5,788C736.5,808 728.083,826.667 716.25,844C704.417,861.333 688.75,876.75 669.25,890.25C649.75,903.75 626,914 598,921C561.333,927.667 525.333,929.583 490,926.75C454.667,923.917 422.417,915.667 393.25,902C364.083,888.333 339.5,868.833 319.5,843.5C299.5,818.167 286.667,786.167 281,747.5L281.5,691.5L287.5,685.5L409,691C410,691.667 411,692.5 412,693.5C412.667,694.167 413.25,694.833 413.75,695.5C414.25,696.167 414.667,696.667 415,697C415,730 419.167,757.25 427.5,778.75C435.833,800.25 446.417,816.75 459.25,828.25C472.083,839.75 486.083,846.5 501.25,848.5C516.417,850.5 530.917,848.25 544.75,841.75C558.583,835.25 570.583,824.833 580.75,810.5C590.917,796.167 597.333,778.5 600,757.5C603.333,737.167 604.417,719.083 603.25,703.25C602.083,687.417 599.417,673.667 595.25,662C591.083,650.333 585.75,640.417 579.25,632.25C572.75,624.083 565.833,617.167 558.5,611.5C541.167,598.5 520.333,590.667 496,588L430,587.5L425.5,583.5L425.5,519.5L430,515.5L490.5,515.5C490.167,515.5 492.833,515 498.5,514C504.167,513 511.25,511 519.75,508C528.25,505 537.417,500.75 547.25,495.25C557.083,489.75 566,482.333 574,473C582,463.667 588.417,452.167 593.25,438.5C598.083,424.833 599.833,408.333 598.5,389C593.167,354.667 585.333,328.417 575,310.25C564.667,292.083 553.333,279.917 541,273.75C528.667,267.583 516.083,266.083 503.25,269.25C490.417,272.417 478.667,278.083 468,286.25C457.333,294.417 448.583,304 441.75,315C434.917,326 431.333,336 431,345C431,344.667 430.833,345.75 430.5,348.25C430.167,350.75 429.75,354.25 429.25,358.75C428.75,363.25 428.167,368.417 427.5,374.25C426.833,380.083 426.167,386 425.5,392C424.167,406.333 422.5,422.833 420.5,441.5Z" fill="#000000" fill-opacity="1">
  </path>
</svg>