<!-- Exported by Character Map UWP -->
<svg height="100%" viewBox="289 199 452 727" width="100%" xmlns="http://www.w3.org/2000/svg" xmlns:xlink="http://www.w3.org/1999/xlink">
  <path d="M339.5,843.5C333.167,834.167 327,818.5 321,796.5C315,774.5 309.583,748.75 304.75,719.25C299.917,689.75 296.083,657.75 293.25,623.25C290.417,588.75 288.917,554.417 288.75,520.25C288.583,486.083 290.167,453.333 293.5,422C296.833,390.667 302.333,363.5 310,340.5C320.333,309.5 334.917,283.917 353.75,263.75C372.583,243.583 393.583,228.25 416.75,217.75C439.917,207.25 464.333,201.167 490,199.5C515.667,197.833 540.667,200 565,206C589.333,212 612,221.5 633,234.5C654,247.5 671.5,263.333 685.5,282C697.5,298.333 707.583,320.417 715.75,348.25C723.917,376.083 730,407 734,441C738,475 740,510.833 740,548.5C740,586.167 738.083,622.917 734.25,658.75C730.417,694.583 724.583,728.167 716.75,759.5C708.917,790.833 699.333,817.333 688,839C679,856 666,870.75 649,883.25C632,895.75 612.833,905.583 591.5,912.75C570.167,919.917 547.667,924.083 524,925.25C500.333,926.417 477.083,924.333 454.25,919C431.417,913.667 410,904.833 390,892.5C370,880.167 353.167,863.833 339.5,843.5ZM591,343C588,331.333 583.25,321 576.75,312C570.25,303 562.667,295.75 554,290.25C545.333,284.75 535.917,280.917 525.75,278.75C515.583,276.583 505.667,276.583 496,278.75C486.333,280.917 477.083,285.25 468.25,291.75C459.417,298.25 451.833,307.167 445.5,318.5C439.5,329.5 434.583,345.917 430.75,367.75C426.917,389.583 424,414.417 422,442.25C420,470.083 419,499.833 419,531.5C419,563.167 419.667,594.333 421,625C422.333,655.667 424.5,684.583 427.5,711.75C430.5,738.917 434.167,762 438.5,781C441.833,796.333 447.5,808.917 455.5,818.75C463.5,828.583 472.667,835.917 483,840.75C493.333,845.583 504.083,847.75 515.25,847.25C526.417,846.75 537,843.917 547,838.75C557,833.583 565.75,826 573.25,816C580.75,806 585.833,793.667 588.5,779C592.833,756.333 596.417,732.083 599.25,706.25C602.083,680.417 604.25,654.083 605.75,627.25C607.25,600.417 608.083,573.583 608.25,546.75C608.417,519.917 607.917,494.083 606.75,469.25C605.583,444.417 603.667,421.25 601,399.75C598.333,378.25 595,359.333 591,343Z" fill="#000000" fill-opacity="1">
  </path>
</svg>