<!-- Exported by Character Map UWP -->
<svg height="100%" viewBox="267 198 475 726" width="100%" xmlns="http://www.w3.org/2000/svg" xmlns:xlink="http://www.w3.org/1999/xlink">
  <path d="M672,198.5L675.5,202L675.5,642L739,642L741.5,645.5L741.5,744L736,749.5L665.5,749.5L665.5,916.5L658.5,923L533,923L527.5,918L527.5,749.5L275,749.5L266.5,740L266.5,602C277.167,589.333 288.333,574.75 300,558.25C311.667,541.75 323.417,524 335.25,505C347.083,486 358.833,466.167 370.5,445.5C382.167,424.833 393.25,404 403.75,383C414.25,362 424.083,341.083 433.25,320.25C442.417,299.417 450.5,279.5 457.5,260.5C458.167,258.833 459.833,254.667 462.5,248C465.167,241.333 467.833,234.167 470.5,226.5C473.833,217.833 477.5,208.167 481.5,197.5ZM339,654.5L341.5,657.5L529,657.5L534,652.5L534,479.5C534,457.833 534,436.667 534,416C534,395.333 534,376.917 534,360.75C534,344.583 534,331.583 534,321.75C534,311.917 534,307.167 534,307.5C530.333,322.167 524.5,339.25 516.5,358.75C508.5,378.25 499.167,398.917 488.5,420.75C477.833,442.583 466.083,464.667 453.25,487C440.417,509.333 427.333,530.667 414,551C400.667,571.333 387.583,589.917 374.75,606.75C361.917,623.583 350,637 339,647Z" fill="#000000" fill-opacity="1">
  </path>
</svg>