<!-- Exported by Character Map UWP -->
<svg height="100%" viewBox="259 198 485 730" width="100%" xmlns="http://www.w3.org/2000/svg" xmlns:xlink="http://www.w3.org/1999/xlink">
  <path d="M472.5,286C461.167,296.667 451.917,309.917 444.75,325.75C437.583,341.583 431.917,358.167 427.75,375.5C423.583,392.833 420.5,410.167 418.5,427.5C416.5,444.833 415.25,460.333 414.75,474C414.25,487.667 414,498.833 414,507.5C414,516.167 413.833,520.5 413.5,520.5C422.167,513.833 434.25,506.917 449.75,499.75C465.25,492.583 482.667,486.75 502,482.25C521.333,477.75 541.583,475.25 562.75,474.75C583.917,474.25 604.5,477.417 624.5,484.25C644.5,491.083 663,502.25 680,517.75C697,533.25 711,554.667 722,582C739,631.667 745.75,676.75 742.25,717.25C738.75,757.75 728.167,792.667 710.5,822C692.833,851.333 669.833,874.833 641.5,892.5C613.167,910.167 582.75,921.083 550.25,925.25C517.75,929.417 484.833,926.333 451.5,916C418.167,905.667 387.667,887.333 360,861C332.333,834.667 309.25,799.833 290.75,756.5C272.25,713.167 261.5,660.5 258.5,598.5C258.5,593.5 258.75,583.167 259.25,567.5C259.75,551.833 261.75,532.583 265.25,509.75C268.75,486.917 274.25,461.583 281.75,433.75C289.25,405.917 300,377.5 314,348.5C323.333,324.5 337,302.5 355,282.5C373,262.5 393.5,245.667 416.5,232C439.5,218.333 464.083,208.5 490.25,202.5C516.417,196.5 542.5,195.667 568.5,200C594.5,204.333 619.667,214.5 644,230.5C668.333,246.5 689.833,269.5 708.5,299.5C716.167,312.167 722.167,326.167 726.5,341.5C730.833,356.833 734,371.167 736,384.5C738.333,400.167 739.5,415.667 739.5,431L733.5,436.5L610.5,436.5L606.5,433C607.5,429 607.917,422.583 607.75,413.75C607.583,404.917 606.667,395.083 605,384.25C603.333,373.417 600.917,361.917 597.75,349.75C594.583,337.583 590.5,326.083 585.5,315.25C580.5,304.417 574.5,294.833 567.5,286.5C560.5,278.167 552.333,272.167 543,268.5C533.667,264.833 523.167,264.167 511.5,266.5C499.833,268.833 486.833,275.333 472.5,286ZM444,805.5C446,808.5 450.333,812.917 457,818.75C463.667,824.583 471.583,829.833 480.75,834.5C489.917,839.167 500,842.333 511,844C522,845.667 532.75,843.583 543.25,837.75C553.75,831.917 563.583,821.333 572.75,806C581.917,790.667 589.5,768.667 595.5,740C600.833,706.667 602.333,678 600,654C597.667,630 592.667,610 585,594C577.333,578 567.75,565.833 556.25,557.5C544.75,549.167 532.5,544.167 519.5,542.5C506.5,540.833 493.5,542.083 480.5,546.25C467.5,550.417 455.667,557.083 445,566.25C434.333,575.417 425.583,586.833 418.75,600.5C411.917,614.167 408.167,629.5 407.5,646.5C407.833,668.5 409.333,688.417 412,706.25C414.667,724.083 417.833,739.667 421.5,753C425.167,766.333 429.083,777.417 433.25,786.25C437.417,795.083 441,801.5 444,805.5Z" fill="#000000" fill-opacity="1">
  </path>
</svg>