<!-- Exported by Character Map UWP -->
<svg height="100%" viewBox="295 198 468 730" width="100%" xmlns="http://www.w3.org/2000/svg" xmlns:xlink="http://www.w3.org/1999/xlink">
  <path d="M707.5,198L708.5,199L699,313.5L697,315.5L432.5,315.5L438,387C439.667,406.667 441.333,426.833 443,447.5C444.667,468.167 446.333,485.5 448,499.5C471,476.833 494.167,461 517.5,452C540.833,443 563.417,439.333 585.25,441C607.083,442.667 627.75,449.083 647.25,460.25C666.75,471.417 684.167,485.917 699.5,503.75C714.833,521.583 727.75,542.167 738.25,565.5C748.75,588.833 755.917,613.5 759.75,639.5C763.583,665.5 763.583,692.083 759.75,719.25C755.917,746.417 747.5,773 734.5,799C727.5,812.667 719.5,825.583 710.5,837.75C701.5,849.917 691.083,861.083 679.25,871.25C667.417,881.417 653.833,890.667 638.5,899C623.167,907.333 605.833,914.667 586.5,921C581.833,922.667 574.917,924 565.75,925C556.583,926 546.917,926.583 536.75,926.75C526.583,926.917 516.75,926.833 507.25,926.5C497.75,926.167 490.333,925.5 485,924.5C461,920.5 439.917,914.667 421.75,907C403.583,899.333 387.75,890.583 374.25,880.75C360.75,870.917 349.5,860.5 340.5,849.5C331.5,838.5 324,827.5 318,816.5C304.333,790.833 296.667,763.333 295,734L298.5,730.5L422,716L428,721.5C428.667,730.5 429.333,738.833 430,746.5C430.667,753.167 431.25,759.333 431.75,765C432.25,770.667 432.5,773.833 432.5,774.5C439.833,797.167 449.417,815 461.25,828C473.083,841 485.75,849.333 499.25,853C512.75,856.667 526.333,856 540,851C553.667,846 566.167,836.833 577.5,823.5C588.833,810.167 598.333,792.833 606,771.5C613.667,750.167 618.167,725.333 619.5,697C620.833,669 618.75,643.75 613.25,621.25C607.75,598.75 599.917,580.083 589.75,565.25C579.583,550.417 567.583,539.75 553.75,533.25C539.917,526.75 525.167,525.583 509.5,529.75C493.833,533.917 477.667,543.917 461,559.75C444.333,575.583 428.167,598.167 412.5,627.5L310,627.5L304,621.5L304,201.5L308,197.5Z" fill="#000000" fill-opacity="1">
  </path>
</svg>