<!-- Exported by Character Map UWP -->
<svg height="100%" viewBox="276 201 472 722" width="100%" xmlns="http://www.w3.org/2000/svg" xmlns:xlink="http://www.w3.org/1999/xlink">
  <path d="M418,521L413.5,526L280.5,526L276,521.5C275,464.833 281.833,413.833 296.5,368.5C302.833,349.167 311.083,330 321.25,311C331.417,292 344.417,274.833 360.25,259.5C376.083,244.167 394.917,231.25 416.75,220.75C438.583,210.25 464.333,203.833 494,201.5C532.667,198.5 567.333,202.083 598,212.25C628.667,222.417 654.583,237.167 675.75,256.5C696.917,275.833 712.917,298.667 723.75,325C734.583,351.333 739.25,379.333 737.75,409C736.25,438.667 728.25,468.917 713.75,499.75C699.25,530.583 677.333,560 648,588C646,589.333 641.167,593.25 633.5,599.75C625.833,606.25 616.333,614.333 605,624C593.667,633.667 581.083,644.417 567.25,656.25C553.417,668.083 539.333,680.167 525,692.5C491.667,721.167 454.333,753.5 413,789.5L743.5,779.5L747.5,782.5L747.5,919L745.5,921.5L291.5,921.5L286.5,915.5C283.833,892.167 286.167,867.167 293.5,840.5C296.5,829.167 300.833,816.917 306.5,803.75C312.167,790.583 319.583,776.75 328.75,762.25C337.917,747.75 349.167,732.833 362.5,717.5C375.833,702.167 391.667,686.5 410,670.5C445.333,640.5 474.667,612.417 498,586.25C521.333,560.083 540.167,535.667 554.5,513C568.833,490.333 579.333,469.583 586,450.75C592.667,431.917 596.667,414.917 598,399.75C599.333,384.583 598.833,371.25 596.5,359.75C594.167,348.25 591.167,338.5 587.5,330.5C583.833,322.5 580.25,316.25 576.75,311.75C573.25,307.25 571.167,304.5 570.5,303.5C557.167,289.167 542.75,280.5 527.25,277.5C511.75,274.5 496.833,275.917 482.5,281.75C468.167,287.583 455.167,297.25 443.5,310.75C431.833,324.25 423.333,340.167 418,358.5Z" fill="#000000" fill-opacity="1">
  </path>
</svg>