<!-- Exported by Character Map UWP -->
<svg height="100%" viewBox="279 199 298 727" width="100%" xmlns="http://www.w3.org/2000/svg" xmlns:xlink="http://www.w3.org/1999/xlink">
  <path d="M573.5,199L576.5,202L576.5,925L574.5,926L417.5,926L415.5,924L436.5,429L282.5,429L279,426L279,308.5L282.5,307C300.167,306.667 317.667,303.833 335,298.5C349.667,294.167 365.167,287 381.5,277C397.833,267 412.333,252.667 425,234C425,233.667 425.333,231.833 426,228.5C426.667,225.167 427.5,221.5 428.5,217.5C429.833,212.833 431.167,207.667 432.5,202L436.5,199Z" fill="#000000" fill-opacity="1">
  </path>
</svg>